<svg viewBox="0 0 35 35" xmlns="http://www.w3.org/2000/svg">
  <path d="M15.108 27.904a4.398 4.398 0 0 1-.45.023H6.932C3.36 27.929.383 25.23.08 21.718c-.285-3.311 1.897-6.305 5.096-7.134a10.916 10.916 0 0 1 8.811-8.304c5.596-.951 10.989 2.535 12.408 8.02h1.72c3.769 0 6.825 3.051 6.825 6.814 0 3.762-3.056 6.813-6.826 6.813H15.83c-.242 0-.483-.008-.722-.023zM6.84 20.409l10.704-.705-.501 6.285s7.183-14.697 4.006-12.342C17.872 16.002 6.84 20.409 6.84 20.409z" fill="#0E335F" fill-rule="evenodd"/>
</svg>
