<?xml version="1.0" standalone="no"?>
<!DOCTYPE svg PUBLIC "-//W3C//DTD SVG 20010904//EN"
 "http://www.w3.org/TR/2001/REC-SVG-20010904/DTD/svg10.dtd">
<svg version="1.0" xmlns="http://www.w3.org/2000/svg"
 width="700.000000pt" height="700.000000pt" viewBox="0 0 700.000000 700.000000"
 preserveAspectRatio="xMidYMid meet">
<metadata>
Created by potrace 1.11, written by Peter Selinger 2001-2013
</metadata>
<g transform="translate(0.000000,700.000000) scale(0.100000,-0.100000)"
fill="#000000" stroke="none">
<path d="M3370 6483 c-1229 -52 -2310 -866 -2701 -2033 -105 -315 -151 -602
-151 -950 0 -273 23 -470 83 -715 265 -1076 1108 -1919 2184 -2184 245 -60
442 -83 715 -83 273 0 470 23 715 83 990 244 1792 982 2116 1949 105 315 151
602 151 950 0 273 -23 470 -83 715 -265 1076 -1109 1919 -2184 2184 -262 64
-579 96 -845 84z m140 -1983 c344 -43 636 -254 780 -564 21 -44 44 -99 50
-122 l12 -41 133 -6 c167 -8 262 -36 369 -108 95 -63 156 -133 207 -234 66
-133 84 -269 54 -409 -48 -226 -245 -423 -471 -471 -103 -22 -2085 -22 -2189
0 -152 32 -293 127 -381 256 -226 332 -80 777 300 920 l54 20 22 71 c77 253
261 469 505 590 105 53 194 79 345 102 51 7 128 6 210 -4z"/>
<path d="M3901 3843 c-8 -3 -53 -31 -100 -61 -160 -104 -580 -304 -1033 -493
-97 -40 -176 -74 -175 -75 1 -1 217 13 480 30 419 27 477 29 477 16 0 -8 -9
-123 -20 -255 -11 -132 -20 -251 -20 -265 0 -41 197 384 310 670 82 206 112
306 114 374 1 58 -5 70 -33 59z"/>
</g>
</svg>
