<svg viewBox="0 0 600 600" xmlns="http://www.w3.org/2000/svg">
  <g transform="translate(44 44)" fill="none" fill-rule="evenodd">
    <circle fill="#0E345B" cx="256" cy="256" r="256"/>
    <path d="M241.46 339.018c-1.15.118-2.318.178-3.499.178h-60.113c-27.773.02-50.932-20.97-53.282-48.295-2.215-25.757 14.754-49.046 39.64-55.49 7.49-32.554 33.925-58.713 68.542-64.599 43.525-7.4 85.473 19.719 96.51 62.392h13.38c29.321 0 53.091 23.727 53.091 52.996 0 29.27-23.77 52.996-53.091 52.996h-95.564a86.102 86.102 0 0 1-5.615-.178zm-64.324-58.298l83.264-5.487-3.901 48.888s55.873-114.32 31.166-96.002c-24.706 18.317-110.53 52.6-110.53 52.6z" fill="#FFF"/>
  </g>
</svg>
